<svg width="40" height="40" viewBox="0 0 16 16" fill="none" xmlns="http://www.w3.org/2000/svg">
    <path d="M1.5 1.5V4.5M1.5 4.5H6.5M1.5 4.5V12C1.5 12.2761 1.72386 12.5 2 12.5H6.5" stroke="#6C707E"
          stroke-linecap="round"/>
    <path fill-rule="evenodd" clip-rule="evenodd"
          d="M9.28372 2.11201C9.22378 2.00545 9.09015 1.96843 8.98526 2.02932C8.88036 2.09021 8.84392 2.22595 8.90386 2.33251L9.37675 3.17321C8.7491 3.66047 8.2885 4.35857 8.09743 5.16342C8.03374 5.4317 8 5.71185 8 6H15C15 5.69306 14.9617 5.39521 14.8897 5.11112C14.6914 4.32836 14.2373 3.64992 13.6233 3.17325L14.0962 2.33251C14.1562 2.22595 14.1197 2.09021 14.0148 2.02932C13.9099 1.96843 13.7763 2.00545 13.7164 2.11201L13.2588 2.92535C12.7421 2.6196 12.1412 2.44447 11.5 2.44447C10.8589 2.44447 10.258 2.61959 9.74121 2.92532L9.28372 2.11201ZM12.8125 5.11112C13.0541 5.11112 13.25 4.91213 13.25 4.66668C13.25 4.42122 13.0541 4.22223 12.8125 4.22223C12.5709 4.22223 12.375 4.42122 12.375 4.66668C12.375 4.91213 12.5709 5.11112 12.8125 5.11112ZM10.1875 5.11112C10.4291 5.11112 10.625 4.91213 10.625 4.66668C10.625 4.42122 10.4291 4.22223 10.1875 4.22223C9.94588 4.22223 9.75 4.42122 9.75 4.66668C9.75 4.91213 9.94588 5.11112 10.1875 5.11112Z"
          fill="#71D98C"/>
    <path fill-rule="evenodd" clip-rule="evenodd"
          d="M9.28372 10.112C9.22378 10.0054 9.09015 9.96843 8.98526 10.0293C8.88036 10.0902 8.84392 10.226 8.90386 10.3325L9.37675 11.1732C8.7491 11.6605 8.2885 12.3586 8.09743 13.1634C8.03374 13.4317 8 13.7118 8 14H15C15 13.6931 14.9617 13.3952 14.8897 13.1111C14.6914 12.3284 14.2373 11.6499 13.6233 11.1732L14.0962 10.3325C14.1562 10.226 14.1197 10.0902 14.0148 10.0293C13.9099 9.96843 13.7763 10.0054 13.7164 10.112L13.2588 10.9254C12.7421 10.6196 12.1412 10.4445 11.5 10.4445C10.8589 10.4445 10.258 10.6196 9.74121 10.9253L9.28372 10.112ZM12.8125 13.1111C13.0541 13.1111 13.25 12.9121 13.25 12.6667C13.25 12.4212 13.0541 12.2222 12.8125 12.2222C12.5709 12.2222 12.375 12.4212 12.375 12.6667C12.375 12.9121 12.5709 13.1111 12.8125 13.1111ZM10.1875 13.1111C10.4291 13.1111 10.625 12.9121 10.625 12.6667C10.625 12.4212 10.4291 12.2222 10.1875 12.2222C9.94588 12.2222 9.75 12.4212 9.75 12.6667C9.75 12.9121 9.94588 13.1111 10.1875 13.1111Z"
          fill="#71D98C"/>
</svg>
