<svg width="128" height="128" viewBox="0 0 128 128" fill="none" xmlns="http://www.w3.org/2000/svg">
    <path d="M64 28C75.2071 28 85.3356 32.6112 92.5977 40.0371C93.062 40.0124 93.5295 40 94 40C108.359 40 120 51.6406 120 66C120 80.3594 108.359 92 94 92C72.6724 92 51.2989 92 30 92C17.8497 92 8 82.1503 8 70C8 58.07 17.4961 48.3638 29.3418 48.0156C36.2557 36.0509 49.1878 28 64 28Z"
          fill="#DFE1E6"/>
    <path d="M34 10C42.4672 10 49.9036 14.389 54.1758 21.0117C42.0189 23.5421 31.5533 30.6677 24.6758 40.4766C20.3447 41.2523 16.336 42.9569 12.8633 45.377C11.037 41.9911 10 38.1167 10 34C10 20.7452 20.7452 10 34 10Z"
          fill="#F2C55C"/>
    <path d="M4 30C6.20914 30 8 31.7909 8 34C8 36.2091 6.20914 38 4 38C1.79086 38 0 36.2091 0 34C0 31.7909 1.79086 30 4 30Z"
          fill="#F2C55C"/>
    <path d="M12 8C14.2091 8 16 9.79086 16 12C16 14.2091 14.2091 16 12 16C9.79086 16 8 14.2091 8 12C8 9.79086 9.79086 8 12 8Z"
          fill="#F2C55C"/>
    <path d="M56 8C58.2091 8 60 9.79086 60 12C60 14.2091 58.2091 16 56 16C53.7909 16 52 14.2091 52 12C52 9.79086 53.7909 8 56 8Z"
          fill="#F2C55C"/>
    <path d="M34 0C36.2091 0 38 1.79086 38 4C38 6.20914 36.2091 8 34 8C31.7909 8 30 6.20914 30 4C30 1.79086 31.7909 0 34 0Z"
          fill="#F2C55C"/>
</svg>
