<svg width="128" height="128" viewBox="0 0 128 128" fill="none" xmlns="http://www.w3.org/2000/svg">
    <path d="M64 28C75.2071 28 85.3356 32.6112 92.5977 40.0371C93.062 40.0124 93.5295 40 94 40C108.359 40 120 51.6406 120 66C120 80.3594 108.359 92 94 92C72.6724 92 51.2989 92 30 92C17.8497 92 8 82.1503 8 70C8 58.07 17.4961 48.3638 29.3418 48.0156C36.2557 36.0509 49.1878 28 64 28Z"
          fill="#DFE1E6"/>
    <path d="M22.3184 99.5039C24.3517 97.3887 27.6483 97.3887 29.6816 99.5039C32.5329 102.471 36 106.748 36 110C36 115.523 31.5228 120 26 120C20.4772 120 16 115.523 16 110C16 106.748 19.4671 102.471 22.3184 99.5039Z"
          fill="#6B9BFA"/>
    <path d="M60.3184 99.5039C62.3517 97.3887 65.6483 97.3887 67.6816 99.5039C70.5329 102.471 74 106.748 74 110C74 115.523 69.5228 120 64 120C58.4772 120 54 115.523 54 110C54 106.748 57.4671 102.471 60.3184 99.5039Z"
          fill="#6B9BFA"/>
    <path d="M98.3184 99.5039C100.352 97.3887 103.648 97.3887 105.682 99.5039C108.533 102.471 112 106.748 112 110C112 115.523 107.523 120 102 120C96.4772 120 92 115.523 92 110C92 106.748 95.4671 102.471 98.3184 99.5039Z"
          fill="#6B9BFA"/>
</svg>
