<svg width="128" height="128" viewBox="0 0 128 128" fill="none" xmlns="http://www.w3.org/2000/svg">
    <path d="M29.1721 101.172C30.7342 99.6095 33.2662 99.6095 34.8283 101.172C36.3904 102.734 36.3904 105.266 34.8283 106.828L31.6564 110L34.8283 113.172C36.3904 114.734 36.3904 117.266 34.8283 118.828C33.2662 120.39 30.7342 120.39 29.1721 118.828L26.0002 115.656L22.8283 118.828C21.2662 120.39 18.7342 120.39 17.1721 118.828C15.61 117.266 15.61 114.734 17.1721 113.172L20.3439 110L17.1721 106.828C15.61 105.266 15.61 102.734 17.1721 101.172C18.7342 99.6095 21.2662 99.6095 22.8283 101.172L26.0002 104.343L29.1721 101.172Z"
          fill="#DFE1E6"/>
    <path d="M67.1716 101.172C68.7337 99.6095 71.2657 99.6095 72.8278 101.172C74.3899 102.734 74.3899 105.266 72.8278 106.828L69.6559 110L72.8278 113.172C74.3899 114.734 74.3899 117.266 72.8278 118.828C71.2657 120.39 68.7337 120.39 67.1716 118.828L63.9997 115.656L60.8278 118.828C59.2657 120.39 56.7337 120.39 55.1716 118.828C53.6095 117.266 53.6095 114.734 55.1716 113.172L58.3434 110L55.1716 106.828C53.6095 105.266 53.6095 102.734 55.1716 101.172C56.7337 99.6095 59.2657 99.6095 60.8278 101.172L63.9997 104.343L67.1716 101.172Z"
          fill="#DFE1E6"/>
    <path d="M105.172 101.172C106.734 99.6095 109.266 99.6095 110.828 101.172C112.39 102.734 112.39 105.266 110.828 106.828L107.656 110L110.828 113.172C112.39 114.734 112.39 117.266 110.828 118.828C109.266 120.39 106.734 120.39 105.172 118.828L102 115.656L98.8278 118.828C97.2657 120.39 94.7337 120.39 93.1716 118.828C91.6095 117.266 91.6095 114.734 93.1716 113.172L96.3434 110L93.1716 106.828C91.6095 105.266 91.6095 102.734 93.1716 101.172C94.7337 99.6095 97.2657 99.6095 98.8278 101.172L102 104.343L105.172 101.172Z"
          fill="#DFE1E6"/>
    <path d="M64 28C75.2071 28 85.3356 32.6112 92.5977 40.0371C93.062 40.0124 93.5295 40 94 40C108.359 40 120 51.6406 120 66C120 80.3594 108.359 92 94 92C72.6724 92 51.2989 92 30 92C17.8497 92 8 82.1503 8 70C8 58.07 17.4961 48.3638 29.3418 48.0156C36.2557 36.0509 49.1878 28 64 28Z"
          fill="#DFE1E6"/>
</svg>
