<svg width="128" height="128" viewBox="0 0 128 128" fill="none" xmlns="http://www.w3.org/2000/svg">
    <path d="M68.3872 68.8151C68.9383 68.0646 69.9362 67.7929 70.7915 68.1609C71.6469 68.529 72.1335 69.44 71.9673 70.3562L68.3951 89.9987H80.0005C80.7538 89.9988 81.4429 90.4228 81.7837 91.0944C82.1243 91.7665 82.0592 92.5746 81.6138 93.1823L59.6138 123.182C59.0629 123.933 58.0651 124.205 57.2095 123.837C56.354 123.468 55.8672 122.558 56.0337 121.641L59.606 101.999H48.0005C47.2471 101.999 46.5581 101.575 46.2173 100.903C45.8769 100.231 45.9417 99.4228 46.3872 98.8152L68.3872 68.8151Z"
          fill="#F2C55C"/>
    <path d="M64 28C75.2071 28 85.3356 32.6112 92.5977 40.0371C93.062 40.0124 93.5295 40 94 40C108.359 40 120 51.6406 120 66C120 80.3594 108.359 92 94 92H89.9961C89.9957 90.4552 89.6408 88.9049 88.918 87.4785L88.916 87.4746L88.5781 86.8594C86.784 83.8641 83.536 81.9984 80 81.998H77.9805L79.8379 71.7871V71.7832C80.6658 67.2169 78.243 62.6588 73.9531 60.8125C69.6754 58.9729 64.6916 60.3291 61.9375 64.0801L61.9355 64.084L41.4629 92H30C17.8497 92 8 82.1503 8 70C8 58.07 17.4961 48.3638 29.3418 48.0156C36.2557 36.0509 49.1878 28 64 28Z"
          fill="#DFE1E6"/>
</svg>
