<svg width="128" height="128" viewBox="0 0 128 128" fill="none" xmlns="http://www.w3.org/2000/svg">
    <path d="M64 104C66.2091 104 68 105.791 68 108V120C68 122.209 66.2091 124 64 124C61.7909 124 60 122.209 60 120V108C60 105.791 61.7909 104 64 104Z"
          fill="#F2C55C"/>
    <path d="M30.0586 92.2852C31.6207 90.7231 34.1527 90.7231 35.7148 92.2852C37.2769 93.8473 37.2769 96.3793 35.7148 97.9414L26.8281 106.828C25.266 108.39 22.734 108.39 21.1719 106.828C19.6098 105.266 19.6098 102.734 21.1719 101.172L30.0586 92.2852Z"
          fill="#F2C55C"/>
    <path d="M92.2852 92.2852C93.8473 90.7231 96.3793 90.7231 97.9414 92.2852L106.828 101.172C108.39 102.734 108.39 105.266 106.828 106.828C105.266 108.39 102.734 108.39 101.172 106.828L92.2852 97.9414C90.7231 96.3793 90.7231 93.8473 92.2852 92.2852Z"
          fill="#F2C55C"/>
    <path d="M64 32C81.6731 32 96 46.3269 96 64C96 81.6731 81.6731 96 64 96C46.3269 96 32 81.6731 32 64C32 46.3269 46.3269 32 64 32Z"
          fill="#F2C55C"/>
    <path d="M20 60C22.2091 60 24 61.7909 24 64C24 66.2091 22.2091 68 20 68H8C5.79087 68 4.00001 66.2091 4 64C4.00002 61.7909 5.79088 60 8 60H20Z"
          fill="#F2C55C"/>
    <path d="M120 60C122.209 60 124 61.7909 124 64C124 66.2091 122.209 68 120 68H108C105.791 68 104 66.2091 104 64C104 61.7909 105.791 60 108 60H120Z"
          fill="#F2C55C"/>
    <path d="M21.1719 21.1719C22.734 19.6098 25.266 19.6098 26.8281 21.1719L35.7148 30.0586C37.2769 31.6207 37.2769 34.1527 35.7148 35.7148C34.1527 37.2769 31.6207 37.2769 30.0586 35.7148L21.1719 26.8281C19.6098 25.266 19.6098 22.734 21.1719 21.1719Z"
          fill="#F2C55C"/>
    <path d="M101.172 21.1719C102.734 19.6098 105.266 19.6098 106.828 21.1719C108.39 22.734 108.39 25.266 106.828 26.8281L97.9414 35.7148C96.3793 37.2769 93.8473 37.2769 92.2852 35.7148C90.7231 34.1527 90.7231 31.6207 92.2852 30.0586L101.172 21.1719Z"
          fill="#F2C55C"/>
    <path d="M64 4C66.2091 4 68 5.79087 68 8V20C68 22.2091 66.2091 24 64 24C61.7909 24 60 22.2091 60 20V8C60 5.79087 61.7909 4.00001 64 4Z"
          fill="#F2C55C"/>
</svg>
